<svg xmlns="http://www.w3.org/2000/svg" viewBox="0 0 64 64">
  <defs>
    <linearGradient id="g" x1="0" y1="0" x2="1" y2="1">
      <stop offset="0" stop-color="#52B788" />
      <stop offset="1" stop-color="#2D6A4F" />
    </linearGradient>
  </defs>
  <rect width="64" height="64" rx="14" fill="url(#g)" />
  <path
    d="M18 20h20a4 4 0 0 1 4 4v20a4 4 0 0 1-4 4H22a4 4 0 0 1-4-4V20z"
    fill="#FAFAF8"
    opacity="0.95"
  />
  <path d="M18 20v24a4 4 0 0 0 4 4h4V20z" fill="#D8F3DC" />
  <circle cx="22" cy="24" r="1.6" fill="#2D6A4F" />
  <circle cx="22" cy="32" r="1.6" fill="#2D6A4F" />
  <circle cx="22" cy="40" r="1.6" fill="#2D6A4F" />
  <rect x="28" y="27" width="10" height="2" rx="1" fill="#2D6A4F" />
  <rect x="28" y="35" width="8" height="2" rx="1" fill="#40916C" />
</svg>
